<svg xmlns="http://www.w3.org/2000/svg" viewBox="0 0 24 24" width="24" height="24">
  <path fill="none" d="M0 0h24v24H0z"/>
  <path d="M16.12 19.023l-4.199-2.29a4 4 0 1 1 0-5.465l4.2-2.29a4 4 0 1 1 .959 1.755l-4.2 2.29a4.008 4.008 0 0 1 0 1.954l4.199 2.29a4 4 0 1 1-.959 1.755zM9 16a2 2 0 1 0 0-4 2 2 0 0 0 0 4zm11-6a2 2 0 1 0 0-4 2 2 0 0 0 0 4zm0 12a2 2 0 1 0 0-4 2 2 0 0 0 0 4z"/>

  <rect x="1" y="1" width="3" height="3"/>
  <rect x="6" y="1" width="3" height="3"/>
  <rect x="11" y="1" width="3" height="3"/>

  <rect x="1" y="6" width="3" height="3"/>
  <rect x="6" y="6" width="3" height="3"/>
  <rect x="11" y="6" width="3" height="3"/>
</svg>
